<svg xmlns="http://www.w3.org/2000/svg" viewBox="0 0 450 450" width="450" height="450">
  <rect width="450" height="450" rx="0" fill="#000"/>
  <!-- Dot bottom-left of R -->
  <circle cx="52" cy="310" r="12" fill="#fff"/>
  <!-- R - open-top curved shape with diagonal leg -->
  <path d="
    M78 82
    C78 82 78 42 120 42
    L120 42
    C155 42 165 65 165 95
    C165 130 148 152 120 155
    L185 310
    L165 310
    L102 160
    L98 160
    L98 310
    L78 310
    Z
    M98 60
    L98 145
    L115 145
    C142 145 148 125 148 95
    C148 65 140 60 118 60
    Z
  " fill="#fff"/>
  <!-- 1 - thin vertical stroke -->
  <path d="M215 42 L233 42 L233 310 L215 310 Z" fill="#fff"/>
  <!-- 4 - angular with pointed triangle top -->
  <path d="
    M270 220
    L270 42
    L290 42
    L290 220
    Z
  " fill="#fff"/>
  <path d="
    M258 220
    L258 240
    L385 240
    L385 220
    Z
  " fill="#fff"/>
  <path d="
    M365 42
    L385 42
    L385 310
    L365 310
    Z
  " fill="#fff"/>
  <!-- Dot bottom-right of 4 -->
  <circle cx="398" cy="310" r="12" fill="#fff"/>
  <!-- Text "Real de Catorce" -->
  <text x="225" y="390" text-anchor="middle" fill="#fff" font-family="'Helvetica Neue',Helvetica,Arial,sans-serif" font-size="36" font-weight="300" letter-spacing="4">Real de Catorce</text>
</svg>
